<svg width="207" height="34" viewBox="0 0 207 34" fill="none" xmlns="http://www.w3.org/2000/svg">
    <g clip-path="url(#clip0)">
        <path d="M24.2483 24.248V26.7519C24.2483 30.7549 21.0033 34 17.0004 34C12.9974 34 9.75244 30.7549 9.75244 26.7519L9.75244 13.4416C9.75244 11.4037 11.4044 9.75168 13.4423 9.75168L26.7521 9.75168C30.755 9.75168 34.0001 12.9968 34.0001 16.9998C34.0001 21.0029 30.755 24.248 26.7521 24.248H24.2483Z"
              fill="#88BBFF"/>
        <path d="M9.7517 9.75204V7.24814C9.7517 3.2451 12.9967 0 16.9996 0C21.0026 0 24.2476 3.2451 24.2476 7.24814V20.5584C24.2476 22.5963 22.5956 24.2483 20.5577 24.2483H7.24787C3.24495 24.2483 -5.53131e-05 21.0032 -5.53131e-05 17.0002C-5.53131e-05 12.9971 3.24495 9.75204 7.24787 9.75204H9.7517Z"
              fill="#FF3366"/>
        <path fill-rule="evenodd" clip-rule="evenodd"
              d="M9.75186 24.2486V13.4419C9.75186 11.404 11.4039 9.75195 13.4417 9.75195H24.248V20.5586C24.248 22.5965 22.596 24.2486 20.5582 24.2486H9.75186Z"
              fill="#D21746"/>
    </g>
    <path d="M106.217 5.07422C105.845 5.07422 105.544 5.3727 105.544 5.74089V23.2964C105.544 23.6646 105.845 23.9631 106.217 23.9631H108.235C108.607 23.9631 108.908 23.6646 108.908 23.2964V21.2806C108.912 21.2772 108.915 21.2737 108.918 21.2702L111.91 18.0596L115.772 23.672C115.897 23.8541 116.105 23.9631 116.328 23.9631H118.771C119.312 23.9631 119.632 23.3634 119.327 22.9209L114.252 15.5458L118.825 10.6375C119.223 10.2105 118.917 9.51866 118.33 9.51866H115.583C115.395 9.51866 115.216 9.59642 115.089 9.73314L108.908 16.3664V5.74089C108.908 5.3727 108.607 5.07422 108.235 5.07422H106.217Z"
          fill="#ddd"/>
    <path fill-rule="evenodd" clip-rule="evenodd"
          d="M45.4414 16.2027C45.4414 12.52 48.4543 9.53602 52.1703 9.53602C53.8941 9.53602 55.4657 10.1784 56.6562 11.2331V10.2023C56.6562 9.8355 56.9574 9.53602 57.3286 9.53602H59.3482C59.5004 9.53602 59.6406 9.58594 59.7534 9.67057C59.9155 9.7921 60.0206 9.98524 60.0206 10.2023V23.3142C60.0206 23.681 59.7194 23.9805 59.3482 23.9805H57.3286C56.9574 23.9805 56.6562 23.681 56.6562 23.3142V22.2834C55.4657 23.3381 53.8941 23.9805 52.1703 23.9805C48.4543 23.9805 45.4414 20.9965 45.4414 17.3138V16.2027ZM52.731 12.8694C50.5636 12.8694 48.8058 14.6098 48.8058 16.7582C48.8058 18.9067 50.5636 20.6471 52.731 20.6471C54.8984 20.6471 56.6562 18.9067 56.6562 16.7582C56.6562 14.6098 54.8984 12.8694 52.731 12.8694Z"
          fill="#ddd"/>
    <path fill-rule="evenodd" clip-rule="evenodd"
          d="M120.123 16.2027C120.123 12.5208 123.136 9.53602 126.852 9.53602C128.575 9.53602 130.147 10.1779 131.338 11.2336V10.2027C131.338 9.8345 131.639 9.53602 132.011 9.53602H134.029C134.401 9.53602 134.702 9.8345 134.702 10.2027V23.3138C134.702 23.682 134.401 23.9805 134.029 23.9805H132.011C131.639 23.9805 131.338 23.682 131.338 23.3138V22.2829C130.147 23.3386 128.575 23.9805 126.852 23.9805C123.136 23.9805 120.123 20.9957 120.123 17.3138V16.2027ZM127.413 12.8694C125.245 12.8694 123.488 14.6105 123.488 16.7582C123.488 18.906 125.245 20.6471 127.413 20.6471C129.581 20.6471 131.338 18.906 131.338 16.7582C131.338 14.6105 129.581 12.8694 127.413 12.8694Z"
          fill="#ddd"/>
    <path fill-rule="evenodd" clip-rule="evenodd"
          d="M192.421 16.2027C192.421 12.5208 195.433 9.53602 199.149 9.53602C200.873 9.53602 202.445 10.1779 203.635 11.2336V10.2027C203.635 9.8345 203.937 9.53602 204.308 9.53602H206.327C206.699 9.53602 207 9.8345 207 10.2027V23.3138C207 23.682 206.699 23.9805 206.327 23.9805H204.308C203.937 23.9805 203.635 23.682 203.635 23.3138V22.2829C202.445 23.3386 200.873 23.9805 199.149 23.9805C195.433 23.9805 192.421 20.9957 192.421 17.3138V16.2027ZM199.71 12.8694C197.542 12.8694 195.785 14.6105 195.785 16.7582C195.785 18.906 197.542 20.6471 199.71 20.6471C201.878 20.6471 203.635 18.906 203.635 16.7582C203.635 14.6105 201.878 12.8694 199.71 12.8694Z"
          fill="#ddd"/>
    <path d="M170.154 21.7582C170.154 20.5309 171.158 19.536 172.397 19.536C173.636 19.536 174.64 20.5309 174.64 21.7582C174.64 22.9855 173.636 23.9805 172.397 23.9805C171.158 23.9805 170.154 22.9855 170.154 21.7582Z"
          fill="#ddd"/>
    <path fill-rule="evenodd" clip-rule="evenodd"
          d="M66.0307 10.1849C66.0307 9.81814 65.7295 9.51866 65.3583 9.51866H63.3387C62.9675 9.51866 62.6663 9.81814 62.6663 10.1849V27.7413C62.6663 28.1081 62.9675 28.4075 63.3387 28.4075H65.3583C65.7295 28.4075 66.0307 28.1081 66.0307 27.7413V22.2661C67.2212 23.3207 68.7928 23.9631 70.5166 23.9631C74.2326 23.9631 77.2455 20.9792 77.2455 17.2964V16.1853C77.2455 12.5026 74.2326 9.51866 70.5166 9.51866C68.7928 9.51866 67.2212 10.161 66.0307 11.2157V10.1849ZM69.9559 12.852C72.1237 12.852 73.8811 14.5931 73.8811 16.7409C73.8811 18.8887 72.1237 20.6298 69.9559 20.6298C67.7881 20.6298 66.0307 18.8887 66.0307 16.7409C66.0307 14.5931 67.7881 12.852 69.9559 12.852Z"
          fill="#ddd"/>
    <path d="M80.4321 18.9623C80.4321 21.7237 82.6916 23.9623 85.4788 23.9623H87.1068C87.4784 23.9623 87.7797 23.6638 87.7797 23.2956V21.2956C87.7797 20.9274 87.4784 20.6289 87.1068 20.6289H85.4788C84.5497 20.6289 83.7966 19.8827 83.7966 18.9623V12.852H86.5461C86.9178 12.852 87.219 12.5535 87.219 12.1853V10.1853C87.219 9.81714 86.9178 9.51866 86.5461 9.51866H83.7966V5.74089C83.7966 5.3727 83.4953 5.07422 83.1237 5.07422H81.105C80.7334 5.07422 80.4321 5.3727 80.4321 5.74089C80.4321 7.28504 80.4321 8.4706 80.4321 9.51866H78.5609C78.3877 9.51866 78.2472 9.65663 78.2472 9.82845C78.2472 10.4685 78.2472 11.9024 78.2472 12.5422C78.2472 12.714 78.3877 12.852 78.5609 12.852H80.4321C80.4321 14.3851 80.4321 16.1707 80.4321 18.9623Z"
          fill="#ddd"/>
    <path d="M176.665 17.8694V10.2027C176.665 9.8345 176.967 9.53602 177.338 9.53602H179.357C179.728 9.53602 180.03 9.8345 180.03 10.2027V17.3138C180.03 19.1541 181.536 20.6471 183.394 20.6471C185.253 20.6471 186.759 19.1541 186.759 17.3138V10.2027C186.759 9.8345 187.06 9.53602 187.431 9.53602H189.45C189.822 9.53602 190.123 9.8345 190.123 10.2027V23.3138C190.123 23.682 189.822 23.9805 189.45 23.9805H187.431C187.06 23.9805 186.759 23.682 186.759 23.3138V22.5829C185.692 23.4553 184.324 23.9805 182.833 23.9805C179.427 23.9805 176.665 21.2439 176.665 17.8694Z"
          fill="#ddd"/>
    <path fill-rule="evenodd" clip-rule="evenodd"
          d="M140.411 10.3318C140.298 10.6825 140.009 10.989 139.637 10.989H137.618C137.247 10.989 136.941 10.6885 136.984 10.3228C137.813 3.39899 151.525 3.10726 151.525 10.7532C151.525 13.0142 150.167 15.0584 148.071 15.9529L141.536 18.7419C140.792 19.0595 140.31 19.7853 140.31 20.5881C140.31 20.6207 140.336 20.6471 140.369 20.6471H150.852C151.223 20.6471 151.525 20.9455 151.525 21.3137V23.3137C151.525 23.6819 151.223 23.9804 150.852 23.9804H137.618C137.247 23.9804 136.945 23.6819 136.945 23.3137V20.5881C136.945 18.4541 138.227 16.5247 140.205 15.6805L146.74 12.8915C147.602 12.5236 148.16 11.683 148.16 10.7532C148.16 7.32481 141.329 7.4831 140.411 10.3318Z"
          fill="#ddd"/>
    <path fill-rule="evenodd" clip-rule="evenodd"
          d="M88.9012 16.7582C88.9012 12.7695 92.1649 9.53602 96.1909 9.53602C100.217 9.53602 103.48 12.7695 103.48 16.7582C103.48 17.1494 103.449 17.5332 103.389 17.9075C103.339 18.2128 103.065 18.4249 102.753 18.4249L92.5967 18.4249C93.6818 20.8926 97.1656 21.3307 98.9852 19.6108C99.1895 19.4177 99.4806 19.3261 99.7484 19.4146L101.749 20.0752C102.151 20.2082 102.331 20.6744 102.081 21.014C100.755 22.8122 98.6108 23.9805 96.1909 23.9805C92.1649 23.9805 88.9012 20.747 88.9012 16.7582ZM92.4035 15.6471H99.9859C99.0506 11.8937 93.3642 11.9935 92.4035 15.6471Z"
          fill="#ddd"/>
    <path fill-rule="evenodd" clip-rule="evenodd"
          d="M162.653 5.07448C162.041 5.07432 161.46 5.33985 161.063 5.80112L153.58 14.4844C152.977 15.1875 152.646 16.0802 152.646 17.003V19.964C152.646 20.3322 152.947 20.6306 153.319 20.6306H162.179V23.2973C162.179 23.6655 162.48 23.964 162.851 23.964H164.87C165.242 23.964 165.543 23.6655 165.543 23.2973V20.6306H167.674C168.045 20.6306 168.347 20.3322 168.347 19.964V17.964C168.347 17.5958 168.045 17.2973 167.674 17.2973H165.543V5.74174C165.543 5.37355 165.242 5.07507 164.87 5.07507L162.653 5.07448ZM156.144 16.6432L162.179 9.60927V17.2973H156.01V17.003C156.01 16.8712 156.058 16.7437 156.144 16.6432Z"
          fill="#ddd"/>
    <defs>
        <clipPath id="clip0">
            <rect width="34" height="34" fill="white"/>
        </clipPath>
    </defs>
</svg>
